<mxfile host="app.diagrams.net" agent="Mozilla/5.0 (X11; Linux x86_64) AppleWebKit/537.36 (KHTML, like Gecko) Chrome/131.0.0.0 Safari/537.36" version="24.8.9">
  <diagram name="Page-1" id="e7e014a7-5840-1c2e-5031-d8a46d1fe8dd">
    <mxGraphModel dx="1366" dy="1587" grid="1" gridSize="10" guides="1" tooltips="1" connect="1" arrows="1" fold="1" page="1" pageScale="1" pageWidth="1169" pageHeight="826" background="none" math="0" shadow="0">
      <root>
        <mxCell id="0" />
        <mxCell id="1" parent="0" />
        <mxCell id="MK6dSYoFD3CqHcC34tml-93" value="" style="rounded=0;whiteSpace=wrap;html=1;" vertex="1" parent="1">
          <mxGeometry x="190" y="-560" width="880" height="70" as="geometry" />
        </mxCell>
        <mxCell id="MK6dSYoFD3CqHcC34tml-62" style="edgeStyle=orthogonalEdgeStyle;rounded=0;orthogonalLoop=1;jettySize=auto;html=1;entryX=0.5;entryY=0;entryDx=0;entryDy=0;" edge="1" parent="1" source="EjYSQzHJDgB1Ex0AdEF5-150" target="MK6dSYoFD3CqHcC34tml-63">
          <mxGeometry relative="1" as="geometry">
            <mxPoint x="952.4999999999998" y="-290" as="targetPoint" />
            <Array as="points">
              <mxPoint x="600" y="-320" />
              <mxPoint x="953" y="-320" />
            </Array>
          </mxGeometry>
        </mxCell>
        <mxCell id="EjYSQzHJDgB1Ex0AdEF5-150" value="Google OAuth 2.0" style="" parent="1" vertex="1">
          <mxGeometry x="545" y="-438" width="110" height="50" as="geometry" />
        </mxCell>
        <mxCell id="EjYSQzHJDgB1Ex0AdEF5-165" value="" style="ellipse;shape=endState;fillColor=#000000;strokeColor=#ff0000" parent="1" vertex="1">
          <mxGeometry x="945" y="220" width="30" height="30" as="geometry" />
        </mxCell>
        <mxCell id="MK6dSYoFD3CqHcC34tml-50" style="edgeStyle=orthogonalEdgeStyle;rounded=0;orthogonalLoop=1;jettySize=auto;html=1;" edge="1" parent="1" source="MK6dSYoFD3CqHcC34tml-49" target="EjYSQzHJDgB1Ex0AdEF5-150">
          <mxGeometry relative="1" as="geometry" />
        </mxCell>
        <mxCell id="MK6dSYoFD3CqHcC34tml-49" value="User Auth" style="" vertex="1" parent="1">
          <mxGeometry x="250" y="-438" width="110" height="50" as="geometry" />
        </mxCell>
        <mxCell id="MK6dSYoFD3CqHcC34tml-98" style="edgeStyle=orthogonalEdgeStyle;rounded=0;orthogonalLoop=1;jettySize=auto;html=1;exitX=0;exitY=0.5;exitDx=0;exitDy=0;entryX=1;entryY=0.5;entryDx=0;entryDy=0;" edge="1" parent="1" source="MK6dSYoFD3CqHcC34tml-54" target="MK6dSYoFD3CqHcC34tml-97">
          <mxGeometry relative="1" as="geometry" />
        </mxCell>
        <mxCell id="MK6dSYoFD3CqHcC34tml-54" value="Upload Resume" style="" vertex="1" parent="1">
          <mxGeometry x="250" y="-290" width="110" height="50" as="geometry" />
        </mxCell>
        <mxCell id="MK6dSYoFD3CqHcC34tml-55" style="edgeStyle=orthogonalEdgeStyle;rounded=0;orthogonalLoop=1;jettySize=auto;html=1;entryX=0.545;entryY=0;entryDx=0;entryDy=0;entryPerimeter=0;" edge="1" parent="1" source="EjYSQzHJDgB1Ex0AdEF5-150" target="MK6dSYoFD3CqHcC34tml-54">
          <mxGeometry relative="1" as="geometry">
            <Array as="points">
              <mxPoint x="600" y="-350" />
              <mxPoint x="310" y="-350" />
            </Array>
          </mxGeometry>
        </mxCell>
        <mxCell id="MK6dSYoFD3CqHcC34tml-59" style="edgeStyle=orthogonalEdgeStyle;rounded=0;orthogonalLoop=1;jettySize=auto;html=1;" edge="1" parent="1" source="MK6dSYoFD3CqHcC34tml-58" target="EjYSQzHJDgB1Ex0AdEF5-150">
          <mxGeometry relative="1" as="geometry" />
        </mxCell>
        <mxCell id="MK6dSYoFD3CqHcC34tml-58" value="User Auth" style="" vertex="1" parent="1">
          <mxGeometry x="885" y="-438" width="110" height="50" as="geometry" />
        </mxCell>
        <mxCell id="MK6dSYoFD3CqHcC34tml-66" value="" style="edgeStyle=orthogonalEdgeStyle;rounded=0;orthogonalLoop=1;jettySize=auto;html=1;" edge="1" parent="1" source="MK6dSYoFD3CqHcC34tml-63" target="MK6dSYoFD3CqHcC34tml-65">
          <mxGeometry relative="1" as="geometry" />
        </mxCell>
        <mxCell id="MK6dSYoFD3CqHcC34tml-63" value="Enter Query" style="" vertex="1" parent="1">
          <mxGeometry x="897.5" y="-290" width="110" height="50" as="geometry" />
        </mxCell>
        <mxCell id="MK6dSYoFD3CqHcC34tml-72" style="edgeStyle=orthogonalEdgeStyle;rounded=0;orthogonalLoop=1;jettySize=auto;html=1;entryX=0.5;entryY=0;entryDx=0;entryDy=0;" edge="1" parent="1" source="MK6dSYoFD3CqHcC34tml-65" target="MK6dSYoFD3CqHcC34tml-71">
          <mxGeometry relative="1" as="geometry">
            <Array as="points">
              <mxPoint x="600" y="-200" />
              <mxPoint x="960" y="-200" />
            </Array>
          </mxGeometry>
        </mxCell>
        <mxCell id="MK6dSYoFD3CqHcC34tml-65" value="Searching Eligible&#xa;Candidates" style="" vertex="1" parent="1">
          <mxGeometry x="545" y="-290" width="110" height="50" as="geometry" />
        </mxCell>
        <mxCell id="MK6dSYoFD3CqHcC34tml-67" style="edgeStyle=orthogonalEdgeStyle;rounded=0;orthogonalLoop=1;jettySize=auto;html=1;exitX=0.5;exitY=1;exitDx=0;exitDy=0;" edge="1" parent="1" source="MK6dSYoFD3CqHcC34tml-63" target="MK6dSYoFD3CqHcC34tml-63">
          <mxGeometry relative="1" as="geometry" />
        </mxCell>
        <mxCell id="MK6dSYoFD3CqHcC34tml-75" style="edgeStyle=orthogonalEdgeStyle;rounded=0;orthogonalLoop=1;jettySize=auto;html=1;entryX=0;entryY=0.5;entryDx=0;entryDy=0;" edge="1" parent="1" source="MK6dSYoFD3CqHcC34tml-70" target="MK6dSYoFD3CqHcC34tml-74">
          <mxGeometry relative="1" as="geometry">
            <Array as="points">
              <mxPoint x="310" y="-5" />
            </Array>
          </mxGeometry>
        </mxCell>
        <mxCell id="MK6dSYoFD3CqHcC34tml-70" value="Attempt &#xa;Questionnaire" style="" vertex="1" parent="1">
          <mxGeometry x="250" y="-150" width="110" height="50" as="geometry" />
        </mxCell>
        <mxCell id="MK6dSYoFD3CqHcC34tml-73" style="edgeStyle=orthogonalEdgeStyle;rounded=0;orthogonalLoop=1;jettySize=auto;html=1;entryX=1;entryY=0.5;entryDx=0;entryDy=0;" edge="1" parent="1" source="MK6dSYoFD3CqHcC34tml-71" target="MK6dSYoFD3CqHcC34tml-70">
          <mxGeometry relative="1" as="geometry" />
        </mxCell>
        <mxCell id="MK6dSYoFD3CqHcC34tml-79" value="[ Yes ]" style="edgeLabel;html=1;align=center;verticalAlign=middle;resizable=0;points=[];" vertex="1" connectable="0" parent="MK6dSYoFD3CqHcC34tml-73">
          <mxGeometry x="-0.8238" y="1" relative="1" as="geometry">
            <mxPoint as="offset" />
          </mxGeometry>
        </mxCell>
        <mxCell id="MK6dSYoFD3CqHcC34tml-78" style="edgeStyle=orthogonalEdgeStyle;rounded=0;orthogonalLoop=1;jettySize=auto;html=1;entryX=0.5;entryY=0;entryDx=0;entryDy=0;" edge="1" parent="1" source="MK6dSYoFD3CqHcC34tml-71" target="MK6dSYoFD3CqHcC34tml-76">
          <mxGeometry relative="1" as="geometry" />
        </mxCell>
        <mxCell id="MK6dSYoFD3CqHcC34tml-80" value="[ No ]" style="edgeLabel;html=1;align=center;verticalAlign=middle;resizable=0;points=[];" vertex="1" connectable="0" parent="MK6dSYoFD3CqHcC34tml-78">
          <mxGeometry x="-0.4386" y="-1" relative="1" as="geometry">
            <mxPoint as="offset" />
          </mxGeometry>
        </mxCell>
        <mxCell id="MK6dSYoFD3CqHcC34tml-71" value="Questionnaire Required" style="rhombus;whiteSpace=wrap;html=1;fillColor=#ffe6cc;strokeColor=#d79b00;" vertex="1" parent="1">
          <mxGeometry x="900" y="-170" width="120" height="90" as="geometry" />
        </mxCell>
        <mxCell id="MK6dSYoFD3CqHcC34tml-77" style="edgeStyle=orthogonalEdgeStyle;rounded=0;orthogonalLoop=1;jettySize=auto;html=1;entryX=0;entryY=0.5;entryDx=0;entryDy=0;" edge="1" parent="1" source="MK6dSYoFD3CqHcC34tml-74" target="MK6dSYoFD3CqHcC34tml-76">
          <mxGeometry relative="1" as="geometry" />
        </mxCell>
        <mxCell id="MK6dSYoFD3CqHcC34tml-74" value="Compute Score" style="" vertex="1" parent="1">
          <mxGeometry x="545" y="-30" width="110" height="50" as="geometry" />
        </mxCell>
        <mxCell id="MK6dSYoFD3CqHcC34tml-82" style="edgeStyle=orthogonalEdgeStyle;rounded=0;orthogonalLoop=1;jettySize=auto;html=1;" edge="1" parent="1" source="MK6dSYoFD3CqHcC34tml-76" target="MK6dSYoFD3CqHcC34tml-81">
          <mxGeometry relative="1" as="geometry" />
        </mxCell>
        <mxCell id="MK6dSYoFD3CqHcC34tml-76" value="Final Ranked List" style="" vertex="1" parent="1">
          <mxGeometry x="905" y="-30" width="110" height="50" as="geometry" />
        </mxCell>
        <mxCell id="MK6dSYoFD3CqHcC34tml-84" style="edgeStyle=orthogonalEdgeStyle;rounded=0;orthogonalLoop=1;jettySize=auto;html=1;" edge="1" parent="1" source="MK6dSYoFD3CqHcC34tml-81" target="MK6dSYoFD3CqHcC34tml-83">
          <mxGeometry relative="1" as="geometry" />
        </mxCell>
        <mxCell id="MK6dSYoFD3CqHcC34tml-88" value="[ Yes ]" style="edgeLabel;html=1;align=center;verticalAlign=middle;resizable=0;points=[];" vertex="1" connectable="0" parent="MK6dSYoFD3CqHcC34tml-84">
          <mxGeometry x="-0.8667" y="-2" relative="1" as="geometry">
            <mxPoint as="offset" />
          </mxGeometry>
        </mxCell>
        <mxCell id="MK6dSYoFD3CqHcC34tml-86" style="edgeStyle=orthogonalEdgeStyle;rounded=0;orthogonalLoop=1;jettySize=auto;html=1;exitX=0.5;exitY=1;exitDx=0;exitDy=0;entryX=0.5;entryY=0;entryDx=0;entryDy=0;" edge="1" parent="1" source="MK6dSYoFD3CqHcC34tml-81" target="EjYSQzHJDgB1Ex0AdEF5-165">
          <mxGeometry relative="1" as="geometry" />
        </mxCell>
        <mxCell id="MK6dSYoFD3CqHcC34tml-87" value="[ No ]" style="edgeLabel;html=1;align=center;verticalAlign=middle;resizable=0;points=[];" vertex="1" connectable="0" parent="MK6dSYoFD3CqHcC34tml-86">
          <mxGeometry x="-0.1333" y="-1" relative="1" as="geometry">
            <mxPoint as="offset" />
          </mxGeometry>
        </mxCell>
        <mxCell id="MK6dSYoFD3CqHcC34tml-81" value="Message &lt;br&gt;Candidate" style="rhombus;whiteSpace=wrap;html=1;fillColor=#ffe6cc;strokeColor=#d79b00;" vertex="1" parent="1">
          <mxGeometry x="900" y="80" width="120" height="90" as="geometry" />
        </mxCell>
        <mxCell id="MK6dSYoFD3CqHcC34tml-85" style="edgeStyle=orthogonalEdgeStyle;rounded=0;orthogonalLoop=1;jettySize=auto;html=1;entryX=0.5;entryY=0;entryDx=0;entryDy=0;exitX=0.5;exitY=0;exitDx=0;exitDy=0;" edge="1" parent="1" source="MK6dSYoFD3CqHcC34tml-83" target="MK6dSYoFD3CqHcC34tml-81">
          <mxGeometry relative="1" as="geometry">
            <Array as="points">
              <mxPoint x="305" y="40" />
              <mxPoint x="960" y="40" />
            </Array>
          </mxGeometry>
        </mxCell>
        <mxCell id="MK6dSYoFD3CqHcC34tml-83" value="Get Message &amp; &#xa;Give Response" style="" vertex="1" parent="1">
          <mxGeometry x="250" y="100" width="110" height="50" as="geometry" />
        </mxCell>
        <mxCell id="MK6dSYoFD3CqHcC34tml-90" value="" style="endArrow=none;dashed=1;html=1;rounded=0;" edge="1" parent="1">
          <mxGeometry width="50" height="50" relative="1" as="geometry">
            <mxPoint x="470" y="-560" as="sourcePoint" />
            <mxPoint x="470" y="310" as="targetPoint" />
          </mxGeometry>
        </mxCell>
        <mxCell id="MK6dSYoFD3CqHcC34tml-92" value="" style="endArrow=none;dashed=1;html=1;rounded=0;" edge="1" parent="1">
          <mxGeometry width="50" height="50" relative="1" as="geometry">
            <mxPoint x="760" y="-560" as="sourcePoint" />
            <mxPoint x="760" y="310" as="targetPoint" />
          </mxGeometry>
        </mxCell>
        <mxCell id="MK6dSYoFD3CqHcC34tml-94" value="&lt;font style=&quot;font-size: 14px;&quot;&gt;CANDIDATE&lt;/font&gt;" style="text;html=1;align=center;verticalAlign=middle;resizable=0;points=[];autosize=1;strokeColor=none;fillColor=none;" vertex="1" parent="1">
          <mxGeometry x="265" y="-540" width="100" height="30" as="geometry" />
        </mxCell>
        <mxCell id="MK6dSYoFD3CqHcC34tml-95" value="&lt;span style=&quot;font-size: 14px;&quot;&gt;PURITY AI&lt;/span&gt;" style="text;html=1;align=center;verticalAlign=middle;resizable=0;points=[];autosize=1;strokeColor=none;fillColor=none;" vertex="1" parent="1">
          <mxGeometry x="560" y="-540" width="90" height="30" as="geometry" />
        </mxCell>
        <mxCell id="MK6dSYoFD3CqHcC34tml-96" value="&lt;font style=&quot;font-size: 14px;&quot;&gt;RECRUITER&lt;/font&gt;" style="text;html=1;align=center;verticalAlign=middle;resizable=0;points=[];autosize=1;strokeColor=none;fillColor=none;" vertex="1" parent="1">
          <mxGeometry x="885" y="-540" width="110" height="30" as="geometry" />
        </mxCell>
        <mxCell id="MK6dSYoFD3CqHcC34tml-97" value="" style="ellipse;shape=endState;fillColor=#000000;strokeColor=#ff0000" vertex="1" parent="1">
          <mxGeometry x="180" y="-280" width="30" height="30" as="geometry" />
        </mxCell>
        <mxCell id="MK6dSYoFD3CqHcC34tml-102" style="edgeStyle=orthogonalEdgeStyle;rounded=0;orthogonalLoop=1;jettySize=auto;html=1;entryX=0;entryY=0.5;entryDx=0;entryDy=0;" edge="1" parent="1" source="MK6dSYoFD3CqHcC34tml-99" target="MK6dSYoFD3CqHcC34tml-49">
          <mxGeometry relative="1" as="geometry" />
        </mxCell>
        <mxCell id="MK6dSYoFD3CqHcC34tml-99" value="" style="ellipse;html=1;shape=startState;fillColor=#000000;strokeColor=#ff0000;" vertex="1" parent="1">
          <mxGeometry x="180" y="-428" width="30" height="30" as="geometry" />
        </mxCell>
        <mxCell id="MK6dSYoFD3CqHcC34tml-103" style="edgeStyle=orthogonalEdgeStyle;rounded=0;orthogonalLoop=1;jettySize=auto;html=1;entryX=1;entryY=0.5;entryDx=0;entryDy=0;" edge="1" parent="1" source="MK6dSYoFD3CqHcC34tml-101" target="MK6dSYoFD3CqHcC34tml-58">
          <mxGeometry relative="1" as="geometry" />
        </mxCell>
        <mxCell id="MK6dSYoFD3CqHcC34tml-101" value="" style="ellipse;html=1;shape=startState;fillColor=#000000;strokeColor=#ff0000;" vertex="1" parent="1">
          <mxGeometry x="1050" y="-428" width="30" height="30" as="geometry" />
        </mxCell>
      </root>
    </mxGraphModel>
  </diagram>
</mxfile>
